Coordinates
version=1
nRows=20
nColumns=63
inDegrees=yes

Units are S.I. units (second, meters, Newtons, ...)
If the header above contains a line with 'inDegrees', this indicates whether rotational values are in degrees (yes) or radians (no).

endheader
time	pelvis_tilt	pelvis_list	pelvis_rotation	pelvis_tx	pelvis_ty	pelvis_tz	hip_flexion_r	hip_adduction_r	hip_rotation_r	knee_angle_r	knee_angle_r_beta	ankle_angle_r	subtalar_angle_r	mtp_angle_r	hip_flexion_l	hip_adduction_l	hip_rotation_l	knee_angle_l	knee_angle_l_beta	ankle_angle_l	subtalar_angle_l	mtp_angle_l	L5_S1_Flex_Ext	L5_S1_Lat_Bending	L5_S1_axial_rotation	L4_L5_Flex_Ext	L4_L5_Lat_Bending	L4_L5_axial_rotation	L3_L4_Flex_Ext	L3_L4_Lat_Bending	L3_L4_axial_rotation	L2_L3_Flex_Ext	L2_L3_Lat_Bending	L2_L3_axial_rotation	L1_L2_Flex_Ext	L1_L2_Lat_Bending	L1_L2_axial_rotation	L1_T12_Flex_Ext	L1_T12_Lat_Bending	L1_T12_axial_rotation	Abs_r3	Abs_r2	Abs_r1	Abs_t1	Abs_t2	neck_flexion	neck_bending	neck_rotation	arm_flex_r	arm_add_r	arm_rot_r	elbow_flex_r	pro_sup_r	wrist_flex_r	wrist_dev_r	arm_flex_l	arm_add_l	arm_rot_l	elbow_flex_l	pro_sup_l	wrist_flex_l	wrist_dev_l
1.483333	3.685354	-7.060203	81.861797	0.263262	0.945534	0.576058	7.946804	0.933949	-11.547392	20.108329	0.350957	53.910650	18.763631	0.000000	6.954756	-1.415646	-7.683876	19.830026	0.346099	51.473019	2.272000	0.000000	0.255368	0.103253	-0.132792	0.474243	0.137327	-0.141091	0.419544	0.251050	-0.141091	0.291860	0.251050	-0.116193	0.237134	0.210554	-0.107893	0.145917	0.159939	-0.099594	1.824066	1.168020	-0.738547	0.000000	0.000000	27.761460	-1.718919	-7.121564	8.243472	-10.680198	50.315048	44.687475	43.516071	10.755816	20.644637	9.978312	-13.426235	57.154582	47.634294	64.998998	2.764057	-4.414995
1.500000	3.668205	-7.193931	82.043316	0.263040	0.946166	0.575881	7.941397	0.939095	-11.717168	19.811342	0.345773	53.713162	18.754163	0.000000	7.014992	-1.423858	-7.746928	19.626702	0.342551	51.358307	2.750932	0.000000	0.276019	0.106311	-0.146710	0.512596	0.141394	-0.155879	0.453472	0.258486	-0.155879	0.315462	0.258486	-0.128371	0.256312	0.216790	-0.119202	0.157717	0.164676	-0.110032	1.971579	1.202616	-0.815957	0.000000	0.000000	27.846580	-1.896502	-7.022511	7.922018	-10.870819	50.352397	45.148289	41.889297	10.706761	20.975796	10.049062	-13.590840	57.966183	47.926747	63.971176	2.244858	-5.141008
1.516667	3.634905	-7.298006	82.112679	0.262995	0.946741	0.575582	7.897881	0.933308	-11.782097	19.509613	0.340507	53.519108	18.745049	0.000000	6.998925	-1.420694	-7.917651	19.370765	0.338084	51.219946	3.198397	0.000000	0.296456	0.107339	-0.137800	0.550549	0.142761	-0.146412	0.487048	0.260984	-0.146412	0.338820	0.260984	-0.120575	0.275289	0.218885	-0.111962	0.169395	0.166268	-0.103350	2.117557	1.214239	-0.766401	0.000000	0.000000	27.926188	-2.144165	-7.016837	7.615914	-11.032035	50.520172	45.524243	40.432469	10.573582	21.057096	10.186152	-13.765834	58.945116	48.218338	63.129413	1.592731	-5.778166
1.533333	3.590649	-7.386543	82.094028	0.263108	0.947232	0.575180	7.838096	0.923144	-11.762121	19.217289	0.335405	53.336747	18.737433	0.000000	6.931332	-1.428668	-8.273417	19.087686	0.333143	51.083476	3.719551	0.000000	0.318771	0.107172	-0.113438	0.591989	0.142539	-0.120528	0.523708	0.260578	-0.120528	0.364323	0.260578	-0.099258	0.296011	0.218545	-0.092168	0.182146	0.166010	-0.085078	2.276948	1.212352	-0.630907	0.000000	0.000000	27.995011	-2.457904	-7.071921	7.329142	-11.147314	50.769670	45.791872	39.090773	10.439929	20.995740	10.368848	-13.935642	60.051663	48.465612	62.539198	0.836815	-6.479767
1.550000	3.537558	-7.444273	81.967102	0.263363	0.947654	0.574685	7.760406	0.906724	-11.633577	18.957525	0.330871	53.178826	18.736010	0.000000	6.793650	-1.426993	-8.715316	18.766797	0.327542	50.931584	4.159492	0.000000	0.340656	0.106187	-0.070834	0.632633	0.141228	-0.075261	0.559664	0.258183	-0.075261	0.389336	0.258183	-0.061980	0.316333	0.216536	-0.057553	0.194651	0.164483	-0.053126	2.433274	1.201206	-0.393958	0.000000	0.000000	28.053643	-2.826350	-7.195958	7.069311	-11.236041	51.090571	45.974420	37.949911	10.332908	20.767754	10.588916	-14.093900	61.248639	48.703294	62.132686	-0.048127	-7.141347
1.566667	3.498350	-7.471832	81.740907	0.263774	0.948033	0.574153	7.659870	0.913891	-11.383674	18.714612	0.326632	53.032933	18.737570	0.000000	6.594139	-1.459656	-9.355357	18.435849	0.321766	50.795634	4.643990	0.000000	0.361680	0.106595	-0.013458	0.671676	0.141772	-0.014299	0.594204	0.259176	-0.014299	0.413364	0.259176	-0.011775	0.335856	0.217369	-0.010934	0.206664	0.165116	-0.010093	2.583443	1.205828	-0.074847	0.000000	0.000000	28.095633	-3.243097	-7.364248	6.852603	-11.294068	51.472903	46.056900	37.169118	10.246161	20.335522	10.848099	-14.224927	62.480164	48.877965	61.975462	-0.940180	-7.801821
1.583333	3.471083	-7.474752	81.468754	0.264244	0.948329	0.573556	7.542006	0.934607	-11.078052	18.493108	0.322766	52.916734	18.742958	0.000000	6.351043	-1.511925	-10.101645	18.106882	0.316025	50.675023	5.140443	0.000000	0.382973	0.108341	0.043846	0.711219	0.144094	0.046587	0.629186	0.263421	0.046587	0.437700	0.263421	0.038366	0.355629	0.220930	0.035625	0.218831	0.167821	0.032885	2.735538	1.225580	0.243861	0.000000	0.000000	28.134456	-3.688958	-7.587949	6.648867	-11.342224	51.832991	46.140736	36.209629	10.164675	20.041315	11.078349	-14.339946	63.570260	49.030940	62.136514	-1.764895	-8.413073
1.600000	3.453916	-7.455152	81.173786	0.264781	0.948554	0.572961	7.416480	0.967543	-10.736404	18.300953	0.319412	52.831154	18.753170	0.000000	6.082886	-1.586158	-10.936161	17.798166	0.310637	50.579129	5.660376	0.000000	0.403914	0.110428	0.094270	0.750109	0.146870	0.100162	0.663591	0.268496	0.100162	0.461634	0.268496	0.082486	0.375075	0.225186	0.076594	0.230797	0.171054	0.070702	2.885119	1.249189	0.524300	0.000000	0.000000	28.165270	-4.130745	-7.817044	6.469356	-11.378360	52.178595	46.250765	35.232612	10.022918	19.791029	11.280824	-14.451217	64.469704	49.161309	62.525833	-2.415704	-8.886916
1.616667	3.440248	-7.403767	80.839073	0.265376	0.948726	0.572444	7.281361	1.005640	-10.340465	18.139721	0.316598	52.771959	18.760730	0.000000	5.791809	-1.669975	-11.838189	17.520744	0.305795	50.516054	6.186596	0.000000	0.420803	0.112073	0.142797	0.781473	0.149057	0.151722	0.691337	0.272494	0.151722	0.480935	0.272494	0.124948	0.390757	0.228539	0.116023	0.240447	0.173601	0.107098	3.005752	1.267791	0.794195	0.000000	0.000000	28.189336	-4.570700	-8.060542	6.327741	-11.418052	52.500399	46.406685	34.339063	9.838548	19.561012	11.465036	-14.549384	65.145006	49.262915	63.200986	-2.884146	-9.184039
1.633333	3.426493	-7.331204	80.461475	0.266041	0.948841	0.572016	7.151302	1.046998	-9.888518	18.017349	0.314462	52.736716	18.762288	0.000000	5.491837	-1.765846	-12.836740	17.278922	0.301574	50.493832	6.774803	0.000000	0.433930	0.112717	0.189044	0.805852	0.149913	0.200859	0.712904	0.274060	0.200859	0.495939	0.274060	0.165413	0.402948	0.229852	0.153598	0.247948	0.174598	0.141783	3.099522	1.275075	1.051404	0.000000	0.000000	28.210529	-4.972652	-8.285253	6.210863	-11.451226	52.739138	46.605143	33.500392	9.637373	19.417312	11.518263	-14.604488	65.240213	49.310539	64.797518	-3.146983	-9.195998
1.650000	3.423729	-7.241144	80.156861	0.266616	0.948896	0.571763	7.023953	1.086821	-9.518565	17.931412	0.312962	52.720418	18.765646	0.000000	5.221276	-1.856536	-13.673974	17.095932	0.298380	50.494769	7.287459	0.000000	0.441315	0.114136	0.217058	0.819566	0.151801	0.230624	0.725037	0.277511	0.230624	0.504379	0.277511	0.189925	0.409805	0.232746	0.176359	0.252168	0.176797	0.162793	3.152270	1.291131	1.207210	0.000000	0.000000	28.234656	-5.292210	-8.368044	6.126466	-11.480586	52.879514	46.848079	32.494504	9.258722	19.457072	11.652011	-14.659525	65.520982	49.274749	65.743853	-3.398298	-9.262727
1.666667	3.425248	-7.136203	79.922595	0.267104	0.948884	0.571686	6.903902	1.118096	-9.234621	17.885194	0.312156	52.723092	18.767712	0.000000	4.986736	-1.943512	-14.398512	16.981960	0.296391	50.530742	7.794847	0.000000	0.441930	0.115220	0.228341	0.820708	0.153243	0.242612	0.726047	0.280146	0.242612	0.505082	0.280146	0.199798	0.410376	0.234957	0.185527	0.252519	0.178476	0.171256	3.156663	1.303393	1.269963	0.000000	0.000000	28.272043	-5.511903	-8.321605	6.096885	-11.517760	53.033992	47.121630	31.198777	8.676532	19.617574	11.811393	-14.703926	65.821130	49.178360	66.189632	-3.516134	-9.273854
1.683333	3.431736	-7.025492	79.763568	0.267469	0.948798	0.571807	6.802838	1.140605	-9.035506	17.880626	0.312076	52.746160	18.771220	0.000000	4.797756	-2.020855	-14.962903	16.929166	0.295470	50.601328	8.262915	0.000000	0.435706	0.116362	0.228451	0.809150	0.154762	0.242729	0.715822	0.282923	0.242729	0.497969	0.282923	0.199895	0.404597	0.237286	0.185617	0.248963	0.180245	0.171338	3.112206	1.316314	1.270577	0.000000	0.000000	28.308023	-5.642182	-8.183273	6.095428	-11.556213	53.139807	47.357359	29.773058	8.041527	19.877736	12.030702	-14.731157	66.274040	49.040991	65.864276	-3.575641	-9.267570
1.700000	3.446863	-6.914624	79.682935	0.267681	0.948632	0.572119	6.727032	1.156475	-8.933338	17.920656	0.312774	52.791606	18.777037	0.000000	4.659278	-2.087002	-15.339405	16.933660	0.295548	50.710469	8.663336	0.000000	0.422956	0.118801	0.217901	0.785472	0.158005	0.231519	0.694875	0.288853	0.231519	0.483397	0.288853	0.190663	0.392757	0.242259	0.177044	0.241677	0.184023	0.163426	3.021135	1.343902	1.211898	0.000000	0.000000	28.325745	-5.674587	-7.940158	6.120840	-11.590173	53.194968	47.477623	28.606740	7.509104	20.130620	12.271377	-14.717451	66.750711	48.840384	64.927936	-3.443737	-9.256967
1.716667	3.488852	-6.806343	79.681321	0.267692	0.948392	0.572552	6.664653	1.185801	-8.910365	17.984957	0.313897	52.850561	18.776394	0.000000	4.567032	-2.151197	-15.485690	16.987237	0.296483	50.852795	8.930190	0.000000	0.404634	0.126192	0.195208	0.751445	0.167836	0.207408	0.664773	0.306824	0.207408	0.462456	0.306824	0.170807	0.375743	0.257331	0.158606	0.231208	0.195472	0.146406	2.890258	1.427512	1.085688	0.000000	0.000000	28.316618	-5.648949	-7.586280	6.179887	-11.628786	53.246590	47.394714	28.102040	7.200760	20.144952	12.464923	-14.626594	67.085814	48.582321	63.393584	-3.145371	-9.157415
1.733333	3.563159	-6.724905	79.793656	0.267415	0.948038	0.573072	6.638823	1.224977	-9.026636	18.080108	0.315557	52.932151	18.790885	0.000000	4.552293	-2.220694	-15.386981	17.096232	0.298386	51.035430	9.095567	0.000000	0.385917	0.140104	0.158195	0.716686	0.186338	0.168083	0.634023	0.340649	0.168083	0.441064	0.340649	0.138421	0.358362	0.285700	0.128534	0.220513	0.217021	0.118647	2.756565	1.584885	0.879835	0.000000	0.000000	28.255865	-5.652467	-7.227497	6.315092	-11.679965	53.531617	47.042340	28.504970	6.964772	19.762335	12.608562	-14.430656	67.220128	48.212155	61.523204	-2.581100	-8.954380
1.750000	3.676186	-6.654161	79.963331	0.266956	0.947621	0.573692	6.636659	1.288167	-9.217993	18.211609	0.317853	53.023727	18.807185	0.000000	4.586006	-2.318212	-15.184875	17.252618	0.301115	51.250429	9.205606	0.000000	0.364078	0.161337	0.115889	0.676129	0.214579	0.123133	0.598143	0.392276	0.123133	0.416105	0.392276	0.101403	0.338083	0.328999	0.094160	0.208034	0.249912	0.086917	2.600571	1.825080	0.644542	0.000000	0.000000	28.147867	-5.664910	-6.837033	6.487657	-11.718101	53.901965	46.378020	29.568172	6.931558	19.062680	12.769626	-14.155781	67.541869	47.711820	58.272026	-1.874135	-8.646058
1.766667	3.809525	-6.613025	80.193819	0.266278	0.947111	0.574366	6.675793	1.353449	-9.498464	18.379056	0.320775	53.125296	18.824992	0.000000	4.688624	-2.414183	-14.813294	17.448549	0.304535	51.475119	9.189969	0.000000	0.343337	0.188253	0.067219	0.637612	0.250376	0.071421	0.564069	0.457718	0.071421	0.392400	0.457718	0.058817	0.318823	0.383885	0.054616	0.196183	0.291604	0.050415	2.452424	2.129554	0.373854	0.000000	0.000000	27.951024	-5.705983	-6.444061	6.712557	-11.748623	54.499698	45.410422	31.421143	6.881694	18.025796	12.840439	-13.777026	67.409643	47.041239	55.393294	-0.882979	-8.241283
1.783333	3.960653	-6.584132	80.486694	0.265394	0.946546	0.575094	6.733665	1.414717	-9.880474	18.577700	0.324242	53.231242	18.844234	0.000000	4.833715	-2.503929	-14.287645	17.663570	0.308287	51.687553	9.052473	0.000000	0.321199	0.220423	0.007835	0.596499	0.293162	0.008325	0.527698	0.535936	0.008325	0.367098	0.535936	0.006856	0.298265	0.449486	0.006366	0.183533	0.341435	0.005876	2.294292	2.493465	0.043576	0.000000	0.000000	27.642925	-5.713676	-5.949891	7.010370	-11.773581	55.380595	44.157807	34.042676	6.728695	16.707241	12.868849	-13.344258	66.968969	46.231939	53.075636	0.349274	-7.654595
1.800000	4.124622	-6.563819	80.796444	0.264399	0.945959	0.575866	6.804288	1.474616	-10.315625	18.799912	0.328120	53.327823	18.860929	0.000000	5.004032	-2.600524	-13.750324	17.889323	0.312228	51.887723	8.903510	0.000000	0.297709	0.256234	-0.054636	0.552875	0.340791	-0.058051	0.489106	0.623007	-0.058051	0.340251	0.623007	-0.047806	0.276452	0.522512	-0.044392	0.170111	0.396906	-0.040977	2.126505	2.898570	-0.303869	0.000000	0.000000	27.188913	-5.653069	-5.367406	7.387470	-11.793411	56.590630	42.646689	37.260347	6.381134	15.158605	12.876550	-12.892492	66.301310	45.301983	51.884764	1.661034	-6.898678
